<?xml version="1.0" encoding="utf-8"?><svg viewBox="0 0 512 512" xmlns="http://www.w3.org/2000/svg" xmlns:xlink="http://www.w3.org/1999/xlink"><style>:root>svg{display:none}:root>svg:target{display:block}</style><svg viewBox="0 0 41 33" id="diamond" xmlns="http://www.w3.org/2000/svg"><defs><linearGradient id="ab" x1="0%" x2="70.711%" y1="0%" y2="70.711%"><stop offset="0%" stop-color="#FFF"/><stop offset="100%" stop-color="#FFF"/></linearGradient><filter id="aa"><feFlood flood-color="#FF3B4A" flood-opacity="1" result="floodOut"/><feComposite operator="atop" in="floodOut" in2="SourceGraphic" result="compOut"/><feBlend in="compOut" in2="SourceGraphic"/></filter></defs><g filter="url(#aa)"><path fill-rule="evenodd" fill="url(#ab)" d="M40.081 10.446c0-.032-.026-.047-.031-.078-.008-.069.005-.139-.024-.205L35.907.466a.73.73 0 00-.669-.44H4.84a.727.727 0 00-.669.44L.049 10.163c-.029.066-.016.136-.026.205-.003.031-.029.046-.029.078 0 .014.016.026.016.042.01.158.055.309.163.434l19.32 21.833c.015.019.044.011.06.031.053.046.095.088.158.122.013.005.016.028.034.034.095.04.195.06.29.06.097 0 .197-.02.292-.06.018-.006.021-.029.034-.037.063-.031.106-.073.156-.119.018-.02.047-.012.063-.031L39.9 10.922a.715.715 0 00.165-.434c0-.016.016-.028.016-.042zM24.965 1.469l3.553 8.256H11.557l3.556-8.256h9.852zm3.543 9.698l-8.473 19.307-8.468-19.307h16.941zm-18.525 0l7.53 17.171L2.321 11.167h7.662zm20.109 0h7.66L22.559 28.335l7.533-17.168zm8.173-1.442h-8.17l-3.553-8.256h8.214l3.509 8.256zM5.319 1.469h8.22L9.983 9.725H1.81l3.509-8.256z"/></g></svg><svg viewBox="0 0 24 24" id="facebook" xmlns="http://www.w3.org/2000/svg"><path d="M15.997 3.985h2.191V.169C17.81.117 16.51 0 14.996 0c-3.159 0-5.323 1.987-5.323 5.639V9H6.187v4.266h3.486V24h4.274V13.267h3.345l.531-4.266h-3.877V6.062c.001-1.233.333-2.077 2.051-2.077z"/></svg><svg viewBox="0 -91 512 512" id="google-plus" xmlns="http://www.w3.org/2000/svg"><path d="M166 60c34.668 0 66.027 17.79 84 42.3l42.598-42.902C267.12 26.27 218.086 0 166 0 74.8 0 0 73.8 0 165s74.8 165 166 165c75.602 0 139.2-50.7 158.7-120 4.198-14.402 6.3-29.402 6.3-45v-15H181v59.988h79.5C244 245.391 207.7 270 166 270c-57.898 0-106-47.102-106-105S108.102 60 166 60zm0 0M466 90h-60v45h-45v60h45v45h60v-45h46v-60h-46zm0 0"/></svg><svg viewBox="0 0 24 24" id="linkedin" xmlns="http://www.w3.org/2000/svg"><path d="M23.994 24v-.001H24v-8.802c0-4.306-.927-7.623-5.961-7.623-2.42 0-4.044 1.328-4.707 2.587h-.07V7.976H8.489v16.023h4.97v-7.934c0-2.089.396-4.109 2.983-4.109 2.549 0 2.587 2.384 2.587 4.243V24zM.396 7.977h4.976V24H.396zM2.882 0C1.291 0 0 1.291 0 2.882s1.291 2.909 2.882 2.909 2.882-1.318 2.882-2.909A2.884 2.884 0 002.882 0z"/></svg><svg viewBox="0 0 40 38" id="pencil" xmlns="http://www.w3.org/2000/svg"><defs><linearGradient id="eb" x1="0%" x2="70.711%" y1="0%" y2="70.711%"><stop offset="0%" stop-color="#FFF"/><stop offset="100%" stop-color="#FFF"/></linearGradient><filter id="ea"><feFlood flood-color="#FF3B4A" flood-opacity="1" result="floodOut"/><feComposite operator="atop" in="floodOut" in2="SourceGraphic" result="compOut"/><feBlend in="compOut" in2="SourceGraphic"/></filter></defs><g filter="url(#ea)"><path fill-rule="evenodd" fill="url(#eb)" d="M39.7 13.067a23.15 23.15 0 00-4.609-7.559 23.138 23.138 0 00-7.113-5.27.835.835 0 00-.925.139L9.565 16.339l-2.02 1.843a.847.847 0 00-.26.345c-.009.02-.019.048-.028.073L2.555 30.81.548 36.026a.834.834 0 001.009 1.099l5.379-1.524 12.649-3.587a.88.88 0 00.346-.191l2.065-1.885 17.485-15.963a.836.836 0 00.219-.908zM3.78 32.273c.033.022.072.035.106.052.358.225.691.473.967.779.276.303.494.655.685 1.03.022.034.031.076.046.113l-2.878.818 1.074-2.792zm15.166-1.814L7.233 33.78c-.033-.072-.091-.127-.127-.197-.27-.587-.595-1.14-1.019-1.606-.427-.466-.949-.836-1.51-1.16-.07-.041-.112-.103-.182-.14l4.372-11.351 1.31-1.189 1.058 1.156 9.114 9.975-1.303 1.191zm2.537-2.318l-2.646-2.896 13.901-12.683a.847.847 0 00.27-.622c0-.197-.07-.4-.218-.56a.838.838 0 00-1.18-.053L17.709 24.012l-.543-.598-2.083-2.284L28.979 8.447a.836.836 0 10-1.128-1.234L13.952 19.899l-2.641-2.894L27.757 1.993a21.332 21.332 0 016.1 4.645 21.447 21.447 0 014.075 6.49L21.483 28.141z"/></g></svg><svg viewBox="0 0 41 41" id="settings" xmlns="http://www.w3.org/2000/svg"><defs><linearGradient id="fb" x1="0%" x2="70.711%" y1="0%" y2="70.711%"><stop offset="0%" stop-color="#802775"/><stop offset="0%" stop-color="#FFF"/><stop offset="100%" stop-color="#FFF"/></linearGradient><filter id="fa"><feFlood flood-color="#FF3B4A" flood-opacity="1" result="floodOut"/><feComposite operator="atop" in="floodOut" in2="SourceGraphic" result="compOut"/><feBlend in="compOut" in2="SourceGraphic"/></filter></defs><g filter="url(#fa)"><path fill-rule="evenodd" fill="url(#fb)" d="M40.201 23.207l-4.98 1.252c-.292.98-.686 1.929-1.169 2.829l2.644 4.416a.723.723 0 01-.11.882l-3.414 3.43a.73.73 0 01-.877.109l-4.406-2.652c-.908.497-1.858.898-2.832 1.205l-1.232 4.963a.722.722 0 01-.7.545l-4.831.003a.722.722 0 01-.697-.545l-1.237-4.963a15.513 15.513 0 01-2.832-1.205l-4.401 2.649a.722.722 0 01-.877-.106l-3.419-3.431a.72.72 0 01-.107-.879l2.641-4.407a15.114 15.114 0 01-1.177-2.838l-4.975-1.247a.724.724 0 01-.546-.698v-4.844a.72.72 0 01.546-.7l4.946-1.238c.303-.976.708-1.929 1.204-2.845L4.721 8.477a.724.724 0 01.107-.881l3.414-3.423a.711.711 0 01.88-.108l4.401 2.646a15.26 15.26 0 012.826-1.177l1.243-4.99a.721.721 0 01.697-.547h4.831c.329 0 .619.226.697.547l1.237 4.966a16.11 16.11 0 012.83 1.198l4.406-2.652a.738.738 0 01.877.111l3.414 3.424a.723.723 0 01.11.882l-2.642 4.419c.486.906.88 1.856 1.172 2.826l4.98 1.252a.72.72 0 01.546.699v4.841c0 .329-.225.62-.546.697zm-.892-4.975l-4.84-1.216a.712.712 0 01-.519-.51 13.845 13.845 0 00-1.355-3.272.73.73 0 01.008-.73l2.566-4.29-2.621-2.628-4.28 2.576a.707.707 0 01-.729.006 14.373 14.373 0 00-3.278-1.392.711.711 0 01-.501-.517l-1.201-4.82h-3.706l-1.209 4.848a.717.717 0 01-.509.52c-1.135.31-2.234.768-3.268 1.362a.7.7 0 01-.728-.007L8.863 5.588l-2.62 2.631 2.566 4.285a.724.724 0 01.005.732 14.48 14.48 0 00-1.389 3.293.72.72 0 01-.519.506l-4.8 1.203v3.715l4.834 1.215a.718.718 0 01.519.511 13.782 13.782 0 001.36 3.275.721.721 0 01-.008.732L6.245 31.97l2.624 2.632 4.275-2.576a.72.72 0 01.731-.008 14.171 14.171 0 003.278 1.39.735.735 0 01.504.523l1.201 4.815 3.706-.003 1.198-4.817a.726.726 0 01.501-.518 14.239 14.239 0 003.279-1.391.712.712 0 01.728.003l4.281 2.58 2.623-2.635-2.571-4.289a.73.73 0 01-.008-.734 13.614 13.614 0 001.355-3.27.717.717 0 01.519-.509l4.84-1.217v-3.714zm-18.598 7.425c-3.059 0-5.549-2.494-5.549-5.565 0-3.069 2.49-5.563 5.549-5.563 3.057 0 5.544 2.494 5.544 5.563 0 3.071-2.487 5.565-5.544 5.565zm0-9.686a4.12 4.12 0 00-4.111 4.121 4.122 4.122 0 004.111 4.123c2.263 0 4.106-1.851 4.106-4.123 0-2.272-1.843-4.121-4.106-4.121z"/></g></svg><svg viewBox="0 0 44 33" id="truck" xmlns="http://www.w3.org/2000/svg"><defs><linearGradient id="gb" x1="0%" x2="70.711%" y1="0%" y2="70.711%"><stop offset="0%" stop-color="#FFF"/><stop offset="100%" stop-color="#FFF"/></linearGradient><filter id="ga"><feFlood flood-color="#FF3B4A" flood-opacity="1" result="floodOut"/><feComposite operator="atop" in="floodOut" in2="SourceGraphic" result="compOut"/><feBlend in="compOut" in2="SourceGraphic"/></filter></defs><g filter="url(#ga)"><path fill-rule="evenodd" fill="url(#gb)" d="M43.955 16.626v10.341c0 .432-.356.78-.791.78h-2.638a.783.783 0 01-.787-.78c0-.432.352-.781.787-.781h1.85v-8.87H35.25a.783.783 0 01-.787-.779V6.822h-6.339v14.319a.785.785 0 01-.787.781.788.788 0 01-.791-.781V1.552H1.585v24.634h1.879c.435 0 .79.349.79.781 0 .432-.355.78-.79.78H.797a.786.786 0 01-.791-.78V.775c0-.431.356-.779.791-.779h26.54c.435 0 .787.348.787.779v4.487h15.04c.435 0 .791.351.791.782v10.402c.002.036.037.055.037.091 0 .035-.035.053-.037.089zm-1.579-9.804h-6.338v8.934h6.338V6.822zM11.397 20.948c3.357 0 6.09 2.7 6.09 6.019 0 3.321-2.733 6.019-6.09 6.019-3.359 0-6.089-2.698-6.089-6.019 0-3.319 2.73-6.019 6.089-6.019zm0 10.479c2.486 0 4.512-2.001 4.512-4.46s-2.026-4.457-4.512-4.457c-2.489 0-4.514 1.998-4.514 4.457 0 2.459 2.025 4.46 4.514 4.46zm7.931-5.241h5.339c.436 0 .788.349.788.781 0 .432-.352.78-.788.78h-5.339a.783.783 0 01-.787-.78c0-.432.352-.781.787-.781zm13.273-5.234c3.354 0 6.083 2.699 6.083 6.017 0 3.32-2.729 6.02-6.083 6.02-3.36 0-6.092-2.7-6.092-6.02 0-3.318 2.732-6.017 6.092-6.017zm0 10.477c2.483 0 4.505-2 4.505-4.46 0-2.459-2.022-4.458-4.505-4.458-2.489 0-4.514 1.999-4.514 4.458 0 2.46 2.025 4.46 4.514 4.46z"/></g></svg><svg viewBox="0 0 512 512" id="twitter" xmlns="http://www.w3.org/2000/svg"><path d="M512 97.248c-19.04 8.352-39.328 13.888-60.48 16.576 21.76-12.992 38.368-33.408 46.176-58.016-20.288 12.096-42.688 20.64-66.56 25.408C411.872 60.704 384.416 48 354.464 48c-58.112 0-104.896 47.168-104.896 104.992 0 8.32.704 16.32 2.432 23.936-87.264-4.256-164.48-46.08-216.352-109.792-9.056 15.712-14.368 33.696-14.368 53.056 0 36.352 18.72 68.576 46.624 87.232-16.864-.32-33.408-5.216-47.424-12.928v1.152c0 51.008 36.384 93.376 84.096 103.136-8.544 2.336-17.856 3.456-27.52 3.456-6.72 0-13.504-.384-19.872-1.792 13.6 41.568 52.192 72.128 98.08 73.12-35.712 27.936-81.056 44.768-130.144 44.768-8.608 0-16.864-.384-25.12-1.44C46.496 446.88 101.6 464 161.024 464c193.152 0 298.752-160 298.752-298.688 0-4.64-.16-9.12-.384-13.568 20.832-14.784 38.336-33.248 52.608-54.496z"/></svg></svg>