<?xml version="1.0" encoding="utf-8"?><svg xmlns="http://www.w3.org/2000/svg" width="41" height="33" viewBox="0 0 41 33"><defs><linearGradient id="ab" x1="0%" x2="70.711%" y1="0%" y2="70.711%"><stop offset="0%" stop-color="#FFF"/><stop offset="100%" stop-color="#FFF"/></linearGradient><filter id="aa"><feFlood flood-color="#FF3B4A" flood-opacity="1" result="floodOut"/><feComposite operator="atop" in="floodOut" in2="SourceGraphic" result="compOut"/><feBlend in="compOut" in2="SourceGraphic"/></filter></defs><g filter="url(#aa)"><path fill-rule="evenodd" fill="url(#ab)" d="M40.081 10.446c0-.032-.026-.047-.031-.078-.008-.069.005-.139-.024-.205L35.907.466a.73.73 0 00-.669-.44H4.84a.727.727 0 00-.669.44L.049 10.163c-.029.066-.016.136-.026.205-.003.031-.029.046-.029.078 0 .014.016.026.016.042.01.158.055.309.163.434l19.32 21.833c.015.019.044.011.06.031.053.046.095.088.158.122.013.005.016.028.034.034.095.04.195.06.29.06.097 0 .197-.02.292-.06.018-.006.021-.029.034-.037.063-.031.106-.073.156-.119.018-.02.047-.012.063-.031L39.9 10.922a.715.715 0 00.165-.434c0-.016.016-.028.016-.042zM24.965 1.469l3.553 8.256H11.557l3.556-8.256h9.852zm3.543 9.698l-8.473 19.307-8.468-19.307h16.941zm-18.525 0l7.53 17.171L2.321 11.167h7.662zm20.109 0h7.66L22.559 28.335l7.533-17.168zm8.173-1.442h-8.17l-3.553-8.256h8.214l3.509 8.256zM5.319 1.469h8.22L9.983 9.725H1.81l3.509-8.256z"/></g></svg>