<?xml version="1.0" encoding="utf-8"?><svg xmlns="http://www.w3.org/2000/svg" width="40" height="38" viewBox="0 0 40 38"><defs><linearGradient id="eb" x1="0%" x2="70.711%" y1="0%" y2="70.711%"><stop offset="0%" stop-color="#FFF"/><stop offset="100%" stop-color="#FFF"/></linearGradient><filter id="ea"><feFlood flood-color="#FF3B4A" flood-opacity="1" result="floodOut"/><feComposite operator="atop" in="floodOut" in2="SourceGraphic" result="compOut"/><feBlend in="compOut" in2="SourceGraphic"/></filter></defs><g filter="url(#ea)"><path fill-rule="evenodd" fill="url(#eb)" d="M39.7 13.067a23.15 23.15 0 00-4.609-7.559 23.138 23.138 0 00-7.113-5.27.835.835 0 00-.925.139L9.565 16.339l-2.02 1.843a.847.847 0 00-.26.345c-.009.02-.019.048-.028.073L2.555 30.81.548 36.026a.834.834 0 001.009 1.099l5.379-1.524 12.649-3.587a.88.88 0 00.346-.191l2.065-1.885 17.485-15.963a.836.836 0 00.219-.908zM3.78 32.273c.033.022.072.035.106.052.358.225.691.473.967.779.276.303.494.655.685 1.03.022.034.031.076.046.113l-2.878.818 1.074-2.792zm15.166-1.814L7.233 33.78c-.033-.072-.091-.127-.127-.197-.27-.587-.595-1.14-1.019-1.606-.427-.466-.949-.836-1.51-1.16-.07-.041-.112-.103-.182-.14l4.372-11.351 1.31-1.189 1.058 1.156 9.114 9.975-1.303 1.191zm2.537-2.318l-2.646-2.896 13.901-12.683a.847.847 0 00.27-.622c0-.197-.07-.4-.218-.56a.838.838 0 00-1.18-.053L17.709 24.012l-.543-.598-2.083-2.284L28.979 8.447a.836.836 0 10-1.128-1.234L13.952 19.899l-2.641-2.894L27.757 1.993a21.332 21.332 0 016.1 4.645 21.447 21.447 0 014.075 6.49L21.483 28.141z"/></g></svg>