<?xml version="1.0" encoding="utf-8"?><svg xmlns="http://www.w3.org/2000/svg" width="41" height="41" viewBox="0 0 41 41"><defs><linearGradient id="fb" x1="0%" x2="70.711%" y1="0%" y2="70.711%"><stop offset="0%" stop-color="#802775"/><stop offset="0%" stop-color="#FFF"/><stop offset="100%" stop-color="#FFF"/></linearGradient><filter id="fa"><feFlood flood-color="#FF3B4A" flood-opacity="1" result="floodOut"/><feComposite operator="atop" in="floodOut" in2="SourceGraphic" result="compOut"/><feBlend in="compOut" in2="SourceGraphic"/></filter></defs><g filter="url(#fa)"><path fill-rule="evenodd" fill="url(#fb)" d="M40.201 23.207l-4.98 1.252c-.292.98-.686 1.929-1.169 2.829l2.644 4.416a.723.723 0 01-.11.882l-3.414 3.43a.73.73 0 01-.877.109l-4.406-2.652c-.908.497-1.858.898-2.832 1.205l-1.232 4.963a.722.722 0 01-.7.545l-4.831.003a.722.722 0 01-.697-.545l-1.237-4.963a15.513 15.513 0 01-2.832-1.205l-4.401 2.649a.722.722 0 01-.877-.106l-3.419-3.431a.72.72 0 01-.107-.879l2.641-4.407a15.114 15.114 0 01-1.177-2.838l-4.975-1.247a.724.724 0 01-.546-.698v-4.844a.72.72 0 01.546-.7l4.946-1.238c.303-.976.708-1.929 1.204-2.845L4.721 8.477a.724.724 0 01.107-.881l3.414-3.423a.711.711 0 01.88-.108l4.401 2.646a15.26 15.26 0 012.826-1.177l1.243-4.99a.721.721 0 01.697-.547h4.831c.329 0 .619.226.697.547l1.237 4.966a16.11 16.11 0 012.83 1.198l4.406-2.652a.738.738 0 01.877.111l3.414 3.424a.723.723 0 01.11.882l-2.642 4.419c.486.906.88 1.856 1.172 2.826l4.98 1.252a.72.72 0 01.546.699v4.841c0 .329-.225.62-.546.697zm-.892-4.975l-4.84-1.216a.712.712 0 01-.519-.51 13.845 13.845 0 00-1.355-3.272.73.73 0 01.008-.73l2.566-4.29-2.621-2.628-4.28 2.576a.707.707 0 01-.729.006 14.373 14.373 0 00-3.278-1.392.711.711 0 01-.501-.517l-1.201-4.82h-3.706l-1.209 4.848a.717.717 0 01-.509.52c-1.135.31-2.234.768-3.268 1.362a.7.7 0 01-.728-.007L8.863 5.588l-2.62 2.631 2.566 4.285a.724.724 0 01.005.732 14.48 14.48 0 00-1.389 3.293.72.72 0 01-.519.506l-4.8 1.203v3.715l4.834 1.215a.718.718 0 01.519.511 13.782 13.782 0 001.36 3.275.721.721 0 01-.008.732L6.245 31.97l2.624 2.632 4.275-2.576a.72.72 0 01.731-.008 14.171 14.171 0 003.278 1.39.735.735 0 01.504.523l1.201 4.815 3.706-.003 1.198-4.817a.726.726 0 01.501-.518 14.239 14.239 0 003.279-1.391.712.712 0 01.728.003l4.281 2.58 2.623-2.635-2.571-4.289a.73.73 0 01-.008-.734 13.614 13.614 0 001.355-3.27.717.717 0 01.519-.509l4.84-1.217v-3.714zm-18.598 7.425c-3.059 0-5.549-2.494-5.549-5.565 0-3.069 2.49-5.563 5.549-5.563 3.057 0 5.544 2.494 5.544 5.563 0 3.071-2.487 5.565-5.544 5.565zm0-9.686a4.12 4.12 0 00-4.111 4.121 4.122 4.122 0 004.111 4.123c2.263 0 4.106-1.851 4.106-4.123 0-2.272-1.843-4.121-4.106-4.121z"/></g></svg>