<?xml version="1.0" encoding="utf-8"?><svg xmlns="http://www.w3.org/2000/svg" width="44" height="33" viewBox="0 0 44 33"><defs><linearGradient id="gb" x1="0%" x2="70.711%" y1="0%" y2="70.711%"><stop offset="0%" stop-color="#FFF"/><stop offset="100%" stop-color="#FFF"/></linearGradient><filter id="ga"><feFlood flood-color="#FF3B4A" flood-opacity="1" result="floodOut"/><feComposite operator="atop" in="floodOut" in2="SourceGraphic" result="compOut"/><feBlend in="compOut" in2="SourceGraphic"/></filter></defs><g filter="url(#ga)"><path fill-rule="evenodd" fill="url(#gb)" d="M43.955 16.626v10.341c0 .432-.356.78-.791.78h-2.638a.783.783 0 01-.787-.78c0-.432.352-.781.787-.781h1.85v-8.87H35.25a.783.783 0 01-.787-.779V6.822h-6.339v14.319a.785.785 0 01-.787.781.788.788 0 01-.791-.781V1.552H1.585v24.634h1.879c.435 0 .79.349.79.781 0 .432-.355.78-.79.78H.797a.786.786 0 01-.791-.78V.775c0-.431.356-.779.791-.779h26.54c.435 0 .787.348.787.779v4.487h15.04c.435 0 .791.351.791.782v10.402c.002.036.037.055.037.091 0 .035-.035.053-.037.089zm-1.579-9.804h-6.338v8.934h6.338V6.822zM11.397 20.948c3.357 0 6.09 2.7 6.09 6.019 0 3.321-2.733 6.019-6.09 6.019-3.359 0-6.089-2.698-6.089-6.019 0-3.319 2.73-6.019 6.089-6.019zm0 10.479c2.486 0 4.512-2.001 4.512-4.46s-2.026-4.457-4.512-4.457c-2.489 0-4.514 1.998-4.514 4.457 0 2.459 2.025 4.46 4.514 4.46zm7.931-5.241h5.339c.436 0 .788.349.788.781 0 .432-.352.78-.788.78h-5.339a.783.783 0 01-.787-.78c0-.432.352-.781.787-.781zm13.273-5.234c3.354 0 6.083 2.699 6.083 6.017 0 3.32-2.729 6.02-6.083 6.02-3.36 0-6.092-2.7-6.092-6.02 0-3.318 2.732-6.017 6.092-6.017zm0 10.477c2.483 0 4.505-2 4.505-4.46 0-2.459-2.022-4.458-4.505-4.458-2.489 0-4.514 1.999-4.514 4.458 0 2.46 2.025 4.46 4.514 4.46z"/></g></svg>